<svg xmlns="http://www.w3.org/2000/svg" width="328" height="54" viewBox="0 0 328 54" class="editor-view__logo-preview" data-v-8d8ae3dd="" data-v-b0ffd048=""><svg id="mark" viewBox="0 0 100 100" width="54" height="54" x="0" y="0" data-v-8d8ae3dd="" style="fill: rgb(205, 4, 4);"><rect x="0" y="0" width="100%" height="100%" fill="none" data-v-8d8ae3dd=""></rect><g data-v-8d8ae3dd=""><path xmlns="http://www.w3.org/2000/svg" d="M13.3,94h27.9c0.6,0,1-0.4,1-1s-0.4-1-1-1H13.3c-5.4,0-9.9-4.4-9.9-9.9V23.4h14.1V32c0,0.6,0.4,1,1,1s1-0.4,1-1v-8.5h26.1  V32c0,0.6,0.4,1,1,1s1-0.4,1-1v-8.5h14.1v4.9c0,0.6,0.4,1,1,1s1-0.4,1-1v-5.9c0-0.6-0.4-1-1-1H47.7v-0.4C47.7,12.8,41,6,32.7,6  c-8.3,0-15.1,6.8-15.1,15.1v0.4H2.5c-0.6,0-1,0.4-1,1v59.7C1.5,88.7,6.8,94,13.3,94z M19.6,21.1C19.6,13.9,25.5,8,32.7,8  s13.1,5.9,13.1,13.1v0.4H19.6V21.1z M85.5,45.3c0-6.7-5.4-12.1-12.1-12.1s-12.1,5.4-12.1,12.1v3.3h-12c-0.6,0-1,0.4-1,1v26.8  c0,9.7,7.9,17.6,17.6,17.6H81c9.7,0,17.6-7.9,17.6-17.6V49.6c0-0.6-0.4-1-1-1h-12V45.3z M63.2,45.3c0-5.6,4.5-10.1,10.1-10.1  s10.1,4.5,10.1,10.1v3.3H63.2V45.3z M96.5,50.6v25.8C96.5,85,89.6,92,81,92H65.8c-8.6,0-15.6-7-15.6-15.6V50.6h11v6c0,0.6,0.4,1,1,1  s1-0.4,1-1v-6h20.3v6c0,0.6,0.4,1,1,1s1-0.4,1-1v-6H96.5z"></path></g></svg><svg id="name" viewBox="0 0 258.8420104980469 43.055999755859375" width="258" height="42.915939014836" x="70" y="5.5420304925820005" data-v-8d8ae3dd="" style="fill: rgb(0, 66, 90);"><rect x="0" y="0" width="100%" height="100%" fill="none" data-v-8d8ae3dd=""></rect><g data-v-8d8ae3dd=""><path xmlns="http://www.w3.org/2000/svg" d="M14.63 34.50L14.63 34.50Q11.36 34.50 9.02 33.12Q6.67 31.74 5.43 28.91Q4.19 26.08 4.19 21.76L4.19 21.76Q4.19 17.39 5.50 14.58Q6.81 11.78 9.15 10.40Q11.50 9.02 14.63 9.02L14.63 9.02Q18.12 9.02 20.91 10.58Q23.69 12.14 25.32 15.00Q26.96 17.85 26.96 21.76L26.96 21.76Q26.96 25.62 25.32 28.47Q23.69 31.33 20.91 32.91Q18.12 34.50 14.63 34.50ZM6.85 34.13L0 34.13L0 0L7.18 0L7.18 14.40L6.72 21.71L6.85 29.07L6.85 34.13ZM13.39 28.61L13.39 28.61Q15.18 28.61 16.58 27.78Q17.99 26.96 18.84 25.41Q19.69 23.87 19.69 21.76L19.69 21.76Q19.69 19.60 18.84 18.08Q17.99 16.56 16.58 15.73Q15.18 14.90 13.39 14.90L13.39 14.90Q11.59 14.90 10.17 15.73Q8.74 16.56 7.91 18.08Q7.08 19.60 7.08 21.76L7.08 21.76Q7.08 23.87 7.91 25.41Q8.74 26.96 10.17 27.78Q11.59 28.61 13.39 28.61ZM44.02 34.50L44.02 34.50Q39.79 34.50 36.59 32.84Q33.40 31.19 31.65 28.31Q29.90 25.44 29.90 21.76L29.90 21.76Q29.90 18.03 31.62 15.16Q33.35 12.28 36.34 10.65Q39.33 9.02 43.10 9.02L43.10 9.02Q46.74 9.02 49.66 10.56Q52.58 12.10 54.28 14.97Q55.98 17.85 55.98 21.85L55.98 21.85Q55.98 22.26 55.94 22.79Q55.89 23.32 55.84 23.78L55.84 23.78L35.74 23.78L35.74 19.60L52.07 19.60L49.31 20.84Q49.31 18.91 48.53 17.48Q47.75 16.05 46.37 15.25Q44.99 14.44 43.15 14.44L43.15 14.44Q41.31 14.44 39.91 15.25Q38.50 16.05 37.72 17.50Q36.94 18.95 36.94 20.93L36.94 20.93L36.94 22.03Q36.94 24.06 37.83 25.60Q38.73 27.14 40.36 27.94Q42.00 28.75 44.21 28.75L44.21 28.75Q46.18 28.75 47.68 28.15Q49.17 27.55 50.42 26.36L50.42 26.36L54.23 30.50Q52.53 32.43 49.96 33.46Q47.38 34.50 44.02 34.50ZM75.81 9.02L75.81 9.02Q78.75 9.02 81.07 10.19Q83.40 11.36 84.73 13.78Q86.07 16.19 86.07 19.96L86.07 19.96L86.07 34.13L78.89 34.13L78.89 21.07Q78.89 18.08 77.58 16.65Q76.27 15.23 73.88 15.23L73.88 15.23Q72.17 15.23 70.82 15.94Q69.46 16.65 68.70 18.12Q67.94 19.60 67.94 21.90L67.94 21.90L67.94 34.13L60.77 34.13L60.77 9.38L67.62 9.38L67.62 16.24L66.33 14.17Q67.67 11.68 70.15 10.35Q72.63 9.02 75.81 9.02ZM100.88 34.50L100.88 34.50Q97.70 34.50 94.78 33.74Q91.86 32.98 90.16 31.83L90.16 31.83L92.55 26.68Q94.25 27.74 96.58 28.40Q98.90 29.07 101.15 29.07L101.15 29.07Q103.64 29.07 104.67 28.47Q105.71 27.88 105.71 26.82L105.71 26.82Q105.71 25.94 104.90 25.51Q104.10 25.07 102.76 24.84Q101.43 24.61 99.84 24.38Q98.26 24.15 96.65 23.76Q95.04 23.37 93.70 22.59Q92.37 21.80 91.56 20.47Q90.76 19.14 90.76 17.02L90.76 17.02Q90.76 14.67 92.11 12.88Q93.47 11.09 96.05 10.05Q98.62 9.02 102.21 9.02L102.21 9.02Q104.74 9.02 107.36 9.57Q109.99 10.12 111.73 11.18L111.73 11.18L109.34 16.28Q107.55 15.23 105.73 14.83Q103.91 14.44 102.21 14.44L102.21 14.44Q99.82 14.44 98.72 15.09Q97.61 15.73 97.61 16.74L97.61 16.74Q97.61 17.66 98.42 18.12Q99.22 18.58 100.56 18.86Q101.89 19.14 103.48 19.34Q105.06 19.55 106.67 19.96Q108.28 20.38 109.59 21.14Q110.91 21.90 111.73 23.21Q112.56 24.52 112.56 26.63L112.56 26.63Q112.56 28.93 111.18 30.70Q109.80 32.48 107.20 33.49Q104.60 34.50 100.88 34.50ZM138.87 34.13L132.16 34.13L132.16 29.30L131.70 28.24L131.70 19.60Q131.70 17.30 130.29 16.01Q128.89 14.72 125.99 14.72L125.99 14.72Q124.02 14.72 122.11 15.34Q120.20 15.96 118.86 17.02L118.86 17.02L116.29 12.01Q118.31 10.58 121.16 9.80Q124.02 9.02 126.96 9.02L126.96 9.02Q132.62 9.02 135.75 11.68Q138.87 14.35 138.87 20.01L138.87 20.01L138.87 34.13ZM124.61 34.50L124.61 34.50Q121.72 34.50 119.65 33.51Q117.58 32.52 116.47 30.82Q115.37 29.12 115.37 27.00L115.37 27.00Q115.37 24.79 116.45 23.14Q117.53 21.48 119.88 20.54Q122.22 19.60 125.99 19.60L125.99 19.60L132.57 19.60L132.57 23.78L126.78 23.78Q124.25 23.78 123.30 24.61Q122.36 25.44 122.36 26.68L122.36 26.68Q122.36 28.06 123.44 28.86Q124.52 29.67 126.41 29.67L126.41 29.67Q128.20 29.67 129.63 28.82Q131.05 27.97 131.70 26.31L131.70 26.31L132.80 29.62Q132.02 32.02 129.95 33.26Q127.88 34.50 124.61 34.50ZM153.69 34.50L153.69 34.50Q150.51 34.50 147.59 33.74Q144.67 32.98 142.97 31.83L142.97 31.83L145.36 26.68Q147.06 27.74 149.38 28.40Q151.71 29.07 153.96 29.07L153.96 29.07Q156.45 29.07 157.48 28.47Q158.52 27.88 158.52 26.82L158.52 26.82Q158.52 25.94 157.71 25.51Q156.91 25.07 155.57 24.84Q154.24 24.61 152.65 24.38Q151.06 24.15 149.45 23.76Q147.84 23.37 146.51 22.59Q145.18 21.80 144.37 20.47Q143.57 19.14 143.57 17.02L143.57 17.02Q143.57 14.67 144.92 12.88Q146.28 11.09 148.86 10.05Q151.43 9.02 155.02 9.02L155.02 9.02Q157.55 9.02 160.17 9.57Q162.79 10.12 164.54 11.18L164.54 11.18L162.15 16.28Q160.36 15.23 158.54 14.83Q156.72 14.44 155.02 14.44L155.02 14.44Q152.63 14.44 151.52 15.09Q150.42 15.73 150.42 16.74L150.42 16.74Q150.42 17.66 151.22 18.12Q152.03 18.58 153.36 18.86Q154.70 19.14 156.28 19.34Q157.87 19.55 159.48 19.96Q161.09 20.38 162.40 21.14Q163.71 21.90 164.54 23.21Q165.37 24.52 165.37 26.63L165.37 26.63Q165.37 28.93 163.99 30.70Q162.61 32.48 160.01 33.49Q157.41 34.50 153.69 34.50ZM184.83 9.02L184.83 9.02Q187.77 9.02 190.09 10.19Q192.42 11.36 193.75 13.78Q195.09 16.19 195.09 19.96L195.09 19.96L195.09 34.13L187.91 34.13L187.91 21.07Q187.91 18.08 186.60 16.65Q185.29 15.23 182.90 15.23L182.90 15.23Q181.19 15.23 179.84 15.94Q178.48 16.65 177.72 18.12Q176.96 19.60 176.96 21.90L176.96 21.90L176.96 34.13L169.79 34.13L169.79 0L176.96 0L176.96 16.24L175.35 14.17Q176.69 11.68 179.17 10.35Q181.65 9.02 184.83 9.02ZM213.53 34.50L213.53 34.50Q209.58 34.50 206.52 32.84Q203.46 31.19 201.69 28.31Q199.92 25.44 199.92 21.76L199.92 21.76Q199.92 18.03 201.69 15.16Q203.46 12.28 206.52 10.65Q209.58 9.02 213.53 9.02L213.53 9.02Q217.44 9.02 220.52 10.65Q223.61 12.28 225.35 15.13Q227.10 17.99 227.10 21.76L227.10 21.76Q227.10 25.44 225.35 28.31Q223.61 31.19 220.52 32.84Q217.44 34.50 213.53 34.50ZM213.53 28.61L213.53 28.61Q215.33 28.61 216.75 27.78Q218.18 26.96 219.01 25.41Q219.83 23.87 219.83 21.76L219.83 21.76Q219.83 19.60 219.01 18.08Q218.18 16.56 216.75 15.73Q215.33 14.90 213.53 14.90L213.53 14.90Q211.74 14.90 210.31 15.73Q208.89 16.56 208.03 18.08Q207.18 19.60 207.18 21.76L207.18 21.76Q207.18 23.87 208.03 25.41Q208.89 26.96 210.31 27.78Q211.74 28.61 213.53 28.61ZM246.51 34.50L246.51 34.50Q243.39 34.50 241.04 33.12Q238.69 31.74 237.38 28.91Q236.07 26.08 236.07 21.76L236.07 21.76Q236.07 17.39 237.31 14.58Q238.56 11.78 240.90 10.40Q243.25 9.02 246.51 9.02L246.51 9.02Q250.01 9.02 252.79 10.60Q255.58 12.19 257.21 15.04Q258.84 17.89 258.84 21.76L258.84 21.76Q258.84 25.67 257.21 28.52Q255.58 31.37 252.79 32.94Q250.01 34.50 246.51 34.50ZM239.06 43.06L231.89 43.06L231.89 9.38L238.74 9.38L238.74 14.44L238.60 21.80L239.06 29.12L239.06 43.06ZM245.27 28.61L245.27 28.61Q247.07 28.61 248.47 27.78Q249.87 26.96 250.72 25.41Q251.57 23.87 251.57 21.76L251.57 21.76Q251.57 19.60 250.72 18.08Q249.87 16.56 248.47 15.73Q247.07 14.90 245.27 14.90L245.27 14.90Q243.48 14.90 242.05 15.73Q240.63 16.56 239.80 18.08Q238.97 19.60 238.97 21.76L238.97 21.76Q238.97 23.87 239.80 25.41Q240.63 26.96 242.05 27.78Q243.48 28.61 245.27 28.61Z"></path></g></svg><!----></svg>